<?xml version="1.0" standalone="no"?>
<!DOCTYPE svg PUBLIC "-//W3C//DTD SVG 20010904//EN"
 "http://www.w3.org/TR/2001/REC-SVG-20010904/DTD/svg10.dtd">
<svg version="1.0" xmlns="http://www.w3.org/2000/svg"
 width="560.000000pt" height="560.000000pt" viewBox="0 0 560.000000 560.000000"
 preserveAspectRatio="xMidYMid meet">
<metadata>
Created by potrace 1.14, written by Peter Selinger 2001-2017
</metadata>
<g transform="translate(0.000000,560.000000) scale(0.100000,-0.100000)"
fill="#000000" stroke="none">
<path d="M2587 5403 c-2 -2 -29 -5 -60 -8 -31 -2 -75 -9 -99 -16 -24 -6 -47
-12 -53 -14 -5 -1 -23 -7 -38 -13 -16 -7 -32 -12 -36 -12 -12 0 -99 -48 -156
-86 -138 -91 -289 -312 -269 -391 4 -15 -9 -29 -54 -60 -76 -54 -115 -101
-160 -193 -38 -77 -39 -80 -41 -105 0 -8 -30 -31 -66 -52 -36 -20 -65 -41 -65
-45 0 -4 -4 -8 -10 -8 -24 0 -241 -169 -323 -252 -27 -26 -53 -48 -57 -48 -5
0 -10 -4 -12 -9 -1 -5 -32 -41 -68 -81 -79 -88 -240 -300 -240 -316 0 -7 -3
-14 -8 -16 -8 -3 -82 -125 -82 -135 0 -3 -10 -22 -22 -42 -13 -20 -23 -38 -23
-41 -1 -3 -13 -32 -29 -65 -37 -80 -40 -88 -71 -175 -15 -41 -29 -82 -32 -90
-7 -16 -11 -31 -17 -57 -3 -10 -5 -18 -7 -18 -1 0 -3 -9 -5 -20 -1 -11 -12
-56 -22 -100 -20 -78 -23 -98 -41 -220 -11 -70 -19 -214 -22 -370 -1 -30 10
-187 16 -226 8 -62 34 -212 39 -234 2 -5 6 -23 10 -40 20 -82 77 -267 96 -310
5 -11 27 -63 50 -115 38 -84 56 -121 120 -235 14 -25 42 -69 125 -193 24 -36
155 -195 205 -247 111 -118 255 -238 400 -336 119 -80 125 -83 180 -110 25
-12 52 -28 60 -35 8 -7 17 -12 20 -12 3 0 34 -14 70 -30 103 -48 255 -103 385
-141 70 -20 169 -40 174 -36 2 3 10 0 18 -6 7 -6 13 -9 13 -7 0 3 20 2 45 -3
102 -19 180 -24 375 -24 195 0 273 5 375 24 25 5 45 6 45 3 0 -2 6 1 13 7 8 6
16 8 19 5 3 -3 26 0 49 6 24 7 53 14 64 16 11 2 52 13 90 24 39 12 78 23 88
25 59 13 307 121 417 182 63 35 260 161 270 173 4 5 63 51 115 90 48 36 295
293 340 354 28 37 56 73 63 81 6 7 12 18 12 24 0 6 4 11 8 11 5 0 15 12 23 28
8 15 17 29 20 32 10 8 91 149 114 197 11 24 23 43 28 43 4 0 7 6 7 13 0 7 12
38 26 68 76 158 157 423 179 579 9 66 16 110 21 134 3 17 16 252 16 291 -1 68
-14 238 -23 296 -6 41 -12 83 -13 94 -1 11 -6 34 -9 50 -4 17 -9 39 -11 50 -3
11 -9 40 -15 65 -7 25 -14 54 -16 66 -18 79 -86 264 -142 381 -19 40 -34 76
-34 80 0 4 -6 15 -13 23 -6 8 -22 35 -36 60 -13 25 -28 48 -34 52 -6 4 -8 8
-4 8 10 0 -90 146 -167 245 -127 162 -332 361 -471 455 -27 19 -50 37 -52 42
-2 4 -7 8 -12 8 -21 0 -129 82 -135 102 -22 80 -111 246 -137 256 -4 2 -6 8
-2 13 3 5 1 9 -4 9 -5 0 -21 11 -35 25 l-25 26 25 27 c24 26 53 81 68 132 15
46 13 172 -2 223 -56 190 -197 240 -418 149 -55 -22 -116 -44 -135 -47 -77
-15 -177 -12 -265 7 -113 24 -114 24 -147 37 -16 6 -28 8 -28 5 0 -4 -7 -1
-15 6 -8 7 -15 10 -15 7 0 -3 -24 1 -54 9 -30 8 -80 17 -113 19 -32 3 -73 7
-90 9 -18 2 -34 1 -36 -1z"/>
</g>
</svg>
